<?xml version="1.0" encoding="iso-8859-1"?>
<!-- Generator: Adobe Illustrator 17.0.0, SVG Export Plug-In . SVG Version: 6.00 Build 0)  -->
<!DOCTYPE svg PUBLIC "-//W3C//DTD SVG 1.1//EN" "http://www.w3.org/Graphics/SVG/1.1/DTD/svg11.dtd">
<svg version="1.1" id="&#x56FE;&#x5C42;_1" xmlns="http://www.w3.org/2000/svg" xmlns:xlink="http://www.w3.org/1999/xlink" x="0px"
	 y="0px" width="407.25px" height="400px" viewBox="0 0 407.25 400" style="enable-background:new 0 0 407.25 400;"
	 xml:space="preserve">
<path d="M136.634,10.029v172.534c0,0-0.278,16.248,5.282,23.921L29.703,95.09C29.703,95.09,62.709,34.589,136.634,10.029z"/>
<path d="M20.863,110.476l122,122c0,0,11.293,11.686,20.649,13.18L5.398,246.235C5.398,246.235-14.043,180.116,20.863,110.476z"/>
<path d="M10.027,263.365h172.534c0,0,16.248,0.278,23.921-5.282L95.088,370.297C95.088,370.297,34.587,337.291,10.027,263.365z"/>
<path d="M110.474,379.137l122-122c0,0,11.686-11.293,13.18-20.65l0.58,158.114C246.234,394.601,180.114,414.044,110.474,379.137z"/>
<path d="M263.364,389.973V217.438c0,0,0.278-16.248-5.282-23.921l112.214,111.394C370.296,304.912,337.29,365.412,263.364,389.973z"
	/>
<path d="M379.136,289.525l-122.001-122c0,0-11.293-11.686-20.65-13.18l158.115-0.579C394.6,153.766,414.042,219.885,379.136,289.525
	z"/>
<path d="M389.972,136.635H217.437c0,0-16.248-0.278-23.921,5.282L304.91,29.703C304.91,29.703,365.411,62.709,389.972,136.635z"/>
<path d="M289.524,20.863L166.971,142.864c0,0-11.686,11.293-13.18,20.65L153.764,5.399C153.764,5.399,219.884-14.043,289.524,20.863
	z"/>
</svg>
