<?xml version="1.0" encoding="iso-8859-1"?>
<!-- Generator: Adobe Illustrator 17.0.0, SVG Export Plug-In . SVG Version: 6.00 Build 0)  -->
<!DOCTYPE svg PUBLIC "-//W3C//DTD SVG 1.1//EN" "http://www.w3.org/Graphics/SVG/1.1/DTD/svg11.dtd">
<svg version="1.1" id="&#x56FE;&#x5C42;_1" xmlns="http://www.w3.org/2000/svg" xmlns:xlink="http://www.w3.org/1999/xlink" x="0px"
	 y="0px" width="500px" height="500px" viewBox="0 0 500 500" style="enable-background:new 0 0 500 500;" xml:space="preserve">
<g>
	<g>
		<g>
			<g>
				
					<radialGradient id="SVGID_1_" cx="323.2216" cy="-37.3161" r="218.1699" gradientTransform="matrix(1.786 -1.5731 1.5731 1.786 -112.8095 570.6293)" gradientUnits="userSpaceOnUse">
					<stop  offset="0" style="stop-color:#0BD2FC"/>
					<stop  offset="0.6378" style="stop-color:#0978E4"/>
					<stop  offset="1" style="stop-color:#074DC6"/>
				</radialGradient>
				<path style="fill:url(#SVGID_1_);" d="M423.597,63.012c-14.664-28.978-94.304-24.787-135.82-13.539
					c-29.557,8.005-62.289,23.793-86.698,41.748c-20.988,15.442-37.885,24.736-63.86,30.081
					c-20.219,4.162-71.817,17.429-39.182,30.714c13.944,5.681,32.088,6.91,26.749,22.317
					c-19.248,55.627-21.982,93.131-20.064,125.726c1.721,29.219,11.919,54.917,30.096,77.168
					c13.472,16.49,8.893,31.291,22.988,48.957c6.62,8.299,31.712,28.91,28.068,16.501c-12.729-25.966-0.001-36.022-4.805-55.678
					c-7.256-29.721,30.259-38.393,2.747-32.734c-13.48,2.772-26.86,9.981-28.461-6.503c-5.485-56.588,21.28-54.626,48.792-102.332
					c13.141-22.776,55.208-38.383,72.544-63.893c0.549,19.991-26.008,47.493-12.874,44.173
					c14.957-3.795,32.039-12.118,50.962-46.351c10.734,8.704-6.376,20.972-0.089,23.333c10.899-8.654,17.995-18.339,20.533-33.562
					c1.632-9.724,0.108-16.052,2.953-25.33c5.003-16.33,26.256-19.105,40.114-29.02c18.675-13.362,37.099-23.834,58.756-26.487
					c15.834-5.45,22.712-8.64,19.499-15.092C454.259,61.576,423.597,63.012,423.597,63.012z"/>
				<path style="opacity:0.2;fill:#00225E;" d="M302.806,88.931c-29.057-3.058-81.947,20.4-127.792,80.759
					c-46.05,60.645-44.277,138.392-47.319,108.24c-5.2-51.532,4.703-99.684,35.116-146.944c-25.821-6.07-72.232,26.465-74.723,9.731
					c-1.856,3.619,0.509,7.456,9.948,11.299c13.944,5.681,32.088,6.91,26.749,22.317c-19.248,55.627-21.982,93.131-20.064,125.726
					c1.721,29.219,11.919,54.917,30.096,77.168c13.472,16.49,8.893,31.291,22.988,48.957c6.62,8.299,31.712,28.91,28.068,16.501
					c-8.032-27.327,3.345-35.069-1.456-54.725c-7.259-29.72,30.443-42.364,2.931-36.705c-13.479,2.774-27.079,11.042-28.682-5.448
					c-5.482-56.586,21.068-50.806,48.581-98.513c13.134-22.781,47.424-32.674,64.763-58.184
					c0.547,19.99-28.125,45.818-14.991,42.494c14.959-3.791,38.839-18.005,57.762-52.238c10.734,8.704-18.234,31.792-0.089,23.333
					c13.71-6.386,19.924-14.797,22.464-30.022c1.628-9.722-1.65-16.993,1.197-26.271c5.004-16.331,27.723-18.551,41.582-28.467
					c18.676-13.364,43.401-23.235,63.218-30.057c15.836-5.449,21.037-11.165,13.395-14.675c-1.045,6.99-35.927,3.653-39.44,2.14
					C383.293,80.861,371.892,96.21,302.806,88.931z"/>
				<path style="opacity:0.3;fill:#00225E;" d="M299.971,104.202c-29.217,0.1-89.94,45.098-119.04,84.375
					c-10.608,14.321-39.782,60.905-46.478,109.944c-3.761,27.578-0.551,59.631,8.135,81.55
					c-75.222-104.35-5.738-203.085-1.583-223.05c4.057-19.5-54.971,2.157-52.916-16.304c-1.856,3.619,0.509,7.456,9.948,11.299
					c13.944,5.681,32.088,6.91,26.749,22.317c-19.248,55.627-21.982,93.131-20.064,125.726
					c1.721,29.219,11.919,54.917,30.096,77.168c13.472,16.49,8.893,31.291,22.988,48.957c6.62,8.299,31.712,28.91,28.068,16.501
					c-8.032-27.327,3.345-35.069-1.456-54.725c-7.259-29.72,30.443-42.364,2.931-36.705c-13.479,2.774-27.079,11.042-28.682-5.448
					c-5.482-56.586,21.068-50.806,48.581-98.513c13.134-22.781,47.424-32.674,64.763-58.184
					c0.547,19.99-28.125,45.818-14.991,42.494c14.959-3.791,38.839-18.005,57.762-52.238c10.734,8.704-18.234,31.792-0.089,23.333
					c13.71-6.386,19.924-14.797,22.464-30.022c1.628-9.722-1.65-16.993,1.197-26.271c5.004-16.331,27.723-18.551,41.582-28.467
					c18.676-13.364,43.401-23.235,63.218-30.057c15.836-5.449,21.037-11.165,13.395-14.675c-1.045,6.99-40.727,9.402-44.24,7.884
					C366.873,85.467,384.659,103.929,299.971,104.202z"/>
				<path style="opacity:0.3;fill:#FFFFFF;" d="M392.644,46.412c-31.056-7.824-83.097-0.244-111.993,7.579
					c-29.559,8.006-99.242,38.148-118.315,88.535C231.202,45.3,372.704,54.271,387.992,57.228
					C404.826,60.473,405.667,49.684,392.644,46.412z"/>
				<path style="opacity:0.3;fill:#FFFFFF;" d="M99.244,136.143c-10.723-3.226,56.102-21.046,72.55-17.621
					C112.091,133.786,104.063,137.595,99.244,136.143z"/>
				<path style="opacity:0.45;fill:#FFFFFF;" d="M421.671,65.082c9.278-4.893,47.118,7.308,26.937,6.228
					C428.423,70.226,414.34,68.937,421.671,65.082z"/>
				
					<radialGradient id="SVGID_2_" cx="286.682" cy="-39.7287" r="93.3523" gradientTransform="matrix(1.786 -1.5731 1.5731 1.786 -112.8095 570.6293)" gradientUnits="userSpaceOnUse">
					<stop  offset="0.2432" style="stop-color:#FFFFFF"/>
					<stop  offset="1" style="stop-color:#EDEDED"/>
				</radialGradient>
				<path style="fill:url(#SVGID_2_);" d="M419.289,82.77c-42.43,1.092-46.861,24.712-103.386,23.226
					c-32.256-0.85-74.354,26.712-111.487,61.895c-23.648,22.409-59.253,71.133-63.51,131.675
					c-2.825,40.161-1.218,52.351,9.912,68.572c9.37,13.659-0.017,46.552,35.056,74.547c-8.032-27.327,3.345-35.069-1.456-54.725
					c-7.259-29.72,30.443-42.364,2.931-36.705c-13.479,2.774-27.079,11.042-28.682-5.448c-5.482-56.586,21.068-50.806,48.581-98.513
					c13.134-22.781,47.424-32.674,64.763-58.184c0.547,19.99-28.125,45.818-14.991,42.494c14.959-3.791,38.839-18.005,57.762-52.238
					c10.734,8.704-18.234,31.792-0.089,23.333c13.71-6.386,19.924-14.797,22.464-30.022c1.628-9.722-1.65-16.993,1.197-26.271
					c5.004-16.331,27.723-18.551,41.582-28.467c18.676-13.364,43.401-23.235,63.218-30.057
					c15.836-5.449,21.037-11.165,13.395-14.675C458.645,77.299,444.462,82.131,419.289,82.77z"/>
				<path style="opacity:0.1;" d="M403.787,94.661c-42.427,1.087-62.418,40.187-88.998,39.713
					c-32.26-0.579-63.434,24.959-100.57,60.145c-23.645,22.41-62.25,66.202-66.13,108.29c-3.691,40.091,3.793,54.663,11.874,70.298
					c7.605,14.712-6.502,26.197,25.913,69.579c-8.032-27.327,3.345-35.069-1.456-54.725c-7.259-29.72,30.443-42.364,2.931-36.705
					c-13.479,2.774-27.079,11.042-28.682-5.448c-5.482-56.586,21.068-50.806,48.581-98.513
					c13.134-22.781,47.424-32.674,64.763-58.184c0.547,19.99-28.125,45.818-14.991,42.494c14.959-3.791,38.839-18.005,57.762-52.238
					c10.734,8.704-18.234,31.792-0.089,23.333c13.71-6.386,19.924-14.797,22.464-30.022c1.628-9.722-1.65-16.993,1.197-26.271
					c5.004-16.331,27.723-18.551,41.582-28.467c18.676-13.364,43.401-23.235,63.218-30.057
					c15.836-5.449,21.037-11.165,13.395-14.675C465.084,81.611,428.959,94.017,403.787,94.661z"/>
				<path style="opacity:0.1;" d="M302.239,151.116c-32.265-0.579-45.186,32.77-82.321,67.954
					c-23.646,22.411-30.85,40.243-51.257,64.48c-22.234,26.41-18.916,59.881-10.834,75.509
					c7.605,14.717,31.391,48.557,26.591,28.901c-7.259-29.72,30.443-42.364,2.931-36.705c-13.479,2.774-27.079,11.042-28.682-5.448
					c-5.482-56.586,21.068-50.806,48.581-98.513c13.134-22.781,47.424-32.674,64.763-58.184
					c0.547,19.99-28.125,45.818-14.991,42.494c14.959-3.791,38.839-18.005,57.762-52.238c10.734,8.704-18.234,31.792-0.089,23.333
					c13.71-6.386,19.924-14.797,22.464-30.022c1.628-9.722-1.65-16.993,1.197-26.271c5.004-16.331,27.723-18.551,41.582-28.467
					C336.826,120.654,328.819,151.592,302.239,151.116z"/>
				
					<radialGradient id="SVGID_3_" cx="253.1572" cy="-3.9818" r="71.2529" gradientTransform="matrix(1.786 -1.5731 1.5731 1.786 -112.8095 570.6293)" gradientUnits="userSpaceOnUse">
					<stop  offset="0" style="stop-color:#0BD2FC"/>
					<stop  offset="0.4947" style="stop-color:#2151B3"/>
					<stop  offset="1" style="stop-color:#000A30"/>
				</radialGradient>
				<path style="fill:url(#SVGID_3_);" d="M293.504,155.398c-12.433,5.259-22.456,11.822-21.494,33.712
					c0.547,19.99-28.125,45.818-14.991,42.494c14.959-3.791,38.839-18.005,57.762-52.238
					C318.135,167.525,317.777,145.121,293.504,155.398z"/>
				<path style="opacity:0.3;fill:#00225E;" d="M293.504,155.398c-12.433,5.259-22.456,11.822-21.494,33.712
					c0.547,19.99-28.125,45.818-14.991,42.494c14.959-3.791,38.839-18.005,57.762-52.238
					C242.558,243.485,317.777,145.121,293.504,155.398z"/>
			</g>
			
				<radialGradient id="SVGID_4_" cx="295.9437" cy="-22.7191" r="13.1137" gradientTransform="matrix(1.786 -1.5731 1.5731 1.786 -112.8095 570.6293)" gradientUnits="userSpaceOnUse">
				<stop  offset="0" style="stop-color:#0BD2FC"/>
				<stop  offset="0.3617" style="stop-color:#0978E4"/>
				<stop  offset="0.6809" style="stop-color:#074DC6"/>
				<stop  offset="1" style="stop-color:#0A2960"/>
			</radialGradient>
			<path style="fill:url(#SVGID_4_);" d="M389.872,64.387c2.647,3.01,2.361,7.594-0.651,10.242c-3.008,2.651-7.591,2.36-10.237-0.65
				c-2.651-3.007-2.359-7.593,0.646-10.24C382.637,61.088,387.223,61.38,389.872,64.387z"/>
			<path d="M388.421,65.668c1.939,2.206,1.727,5.57-0.477,7.511c-2.206,1.939-5.569,1.725-7.509-0.481
				c-1.948-2.205-1.732-5.567,0.474-7.507C383.115,63.246,386.474,63.458,388.421,65.668z"/>
			<path style="fill:#FFFFFF;" d="M386.473,66.022c0.689,0.777,0.607,1.959-0.167,2.644c-0.779,0.687-1.955,0.61-2.641-0.171
				c-0.687-0.776-0.616-1.958,0.163-2.646C384.603,65.169,385.792,65.244,386.473,66.022z"/>
		</g>
		<g>
			<path style="opacity:0.3;fill:#FFFFFF;" d="M409.976,62.417c-2.29,3.668-7.122,4.789-10.799,2.505
				c-3.672-2.292-4.793-7.124-2.503-10.792c2.286-3.675,7.125-4.798,10.791-2.51C411.136,53.912,412.262,58.742,409.976,62.417z"/>
			<path style="opacity:0.6;fill:#FFFFFF;" d="M408.943,56.092c-1.321,2.118-4.104,2.762-6.232,1.446
				c-2.116-1.325-2.757-4.112-1.437-6.22c1.32-2.125,4.101-2.775,6.22-1.454C409.61,51.19,410.258,53.965,408.943,56.092z"/>
		</g>
	</g>
</g>
</svg>
